<svg width="57" height="57" viewBox="0 0 57 57" fill="none" xmlns="http://www.w3.org/2000/svg">
<path d="M38.031 27.257C34.857 27.257 34.416 30.425 34.416 30.425H41.164C41.164 30.425 41.207 27.257 38.031 27.257Z" fill="#FFB45C"/>
<path d="M22.721 30.425H16.739V35.917H22.035C22.125 35.917 22.26 35.919 22.418 35.917C23.27 35.897 24.885 35.649 24.885 33.247C24.885 30.396 22.721 30.425 22.721 30.425Z" fill="#FFB45C"/>
<path d="M28.348 5.10101C14.748 5.10101 3.72299 16.124 3.72299 29.724C3.72299 43.324 14.748 54.349 28.348 54.349C41.946 54.349 52.971 43.324 52.971 29.724C52.971 16.125 41.945 5.10101 28.348 5.10101ZM33.531 20.231H42.008V22.761H33.531V20.231ZM29.246 33.503C29.246 39.774 22.721 39.567 22.721 39.567H16.739H16.564H12.029V19.021H16.564H16.739H22.721C25.969 19.021 28.533 20.815 28.533 24.491C28.533 28.167 25.398 28.401 25.398 28.401C29.531 28.401 29.246 33.503 29.246 33.503ZM45.104 33.167H34.457C34.457 36.983 38.072 36.743 38.072 36.743C41.486 36.743 41.367 34.532 41.367 34.532H44.984C44.984 40.399 37.951 39.997 37.951 39.997C29.515 39.997 30.058 32.142 30.058 32.142C30.058 32.142 30.05 24.249 37.951 24.249C46.268 24.249 45.104 33.167 45.104 33.167Z" fill="#FFB45C"/>
<path d="M24.174 24.81C24.174 22.673 22.721 22.673 22.721 22.673H21.951H16.739V27.257H22.35C23.318 27.257 24.174 26.946 24.174 24.81Z" fill="#FFB45C"/>
</svg>
